{
	"patcher" : 	{
		"fileversion" : 1,
		"appversion" : 		{
			"major" : 8,
			"minor" : 3,
			"revision" : 3,
			"architecture" : "x64",
			"modernui" : 1
		}
,
		"classnamespace" : "box",
		"rect" : [ 39.0, 97.0, 1277.0, 650.0 ],
		"bglocked" : 0,
		"openinpresentation" : 0,
		"default_fontsize" : 12.0,
		"default_fontface" : 0,
		"default_fontname" : "Arial",
		"gridonopen" : 1,
		"gridsize" : [ 15.0, 15.0 ],
		"gridsnaponopen" : 1,
		"objectsnaponopen" : 1,
		"statusbarvisible" : 2,
		"toolbarvisible" : 1,
		"lefttoolbarpinned" : 0,
		"toptoolbarpinned" : 0,
		"righttoolbarpinned" : 0,
		"bottomtoolbarpinned" : 0,
		"toolbars_unpinned_last_save" : 0,
		"tallnewobj" : 0,
		"boxanimatetime" : 200,
		"enablehscroll" : 1,
		"enablevscroll" : 1,
		"devicewidth" : 0.0,
		"description" : "",
		"digest" : "",
		"tags" : "",
		"style" : "",
		"subpatcher_template" : "",
		"assistshowspatchername" : 0,
		"boxes" : [ 			{
				"box" : 				{
					"id" : "obj-36",
					"linecount" : 2,
					"maxclass" : "comment",
					"numinlets" : 1,
					"numoutlets" : 0,
					"patching_rect" : [ 17.000000000000114, 406.5, 50.0, 33.0 ],
					"text" : "source\nindex",
					"textjustification" : 1
				}

			}
, 			{
				"box" : 				{
					"id" : "obj-34",
					"linecount" : 2,
					"maxclass" : "comment",
					"numinlets" : 1,
					"numoutlets" : 0,
					"patching_rect" : [ 555.000000000000114, 373.5, 67.0, 33.0 ],
					"text" : "vertical span",
					"textjustification" : 1
				}

			}
, 			{
				"box" : 				{
					"id" : "obj-35",
					"linecount" : 2,
					"maxclass" : "comment",
					"numinlets" : 1,
					"numoutlets" : 0,
					"patching_rect" : [ 462.166666666666799, 373.5, 67.0, 33.0 ],
					"text" : "horizontal span",
					"textjustification" : 1
				}

			}
, 			{
				"box" : 				{
					"id" : "obj-33",
					"maxclass" : "message",
					"numinlets" : 2,
					"numoutlets" : 1,
					"outlettype" : [ "" ],
					"patching_rect" : [ 169.000000000000057, 592.0, 424.0, 22.0 ],
					"text" : "/spat/serv car 1 0.42 -1.66 -0.51573 1. 1."
				}

			}
, 			{
				"box" : 				{
					"id" : "obj-31",
					"maxclass" : "newobj",
					"numinlets" : 2,
					"numoutlets" : 1,
					"outlettype" : [ "float" ],
					"patching_rect" : [ 295.500000000000057, 500.5, 39.0, 22.0 ],
					"text" : "/ 100."
				}

			}
, 			{
				"box" : 				{
					"id" : "obj-26",
					"maxclass" : "newobj",
					"numinlets" : 2,
					"numoutlets" : 1,
					"outlettype" : [ "float" ],
					"patching_rect" : [ 202.666666666666799, 500.5, 39.0, 22.0 ],
					"text" : "/ 100."
				}

			}
, 			{
				"box" : 				{
					"bottomvalue" : -166,
					"id" : "obj-20",
					"leftvalue" : -166,
					"maxclass" : "pictslider",
					"numinlets" : 2,
					"numoutlets" : 2,
					"outlettype" : [ "int", "int" ],
					"parameter_enable" : 0,
					"patching_rect" : [ 202.666666666666799, 373.5, 111.833333333333343, 113.0 ],
					"rightvalue" : 166,
					"topvalue" : 166
				}

			}
, 			{
				"box" : 				{
					"id" : "obj-11",
					"linecount" : 2,
					"maxclass" : "comment",
					"numinlets" : 1,
					"numoutlets" : 0,
					"patching_rect" : [ 17.5, 85.5, 50.0, 33.0 ],
					"text" : "source\nindex",
					"textjustification" : 1
				}

			}
, 			{
				"box" : 				{
					"degrees" : 360,
					"floatoutput" : 1,
					"id" : "obj-9",
					"maxclass" : "dial",
					"min" : -3.141593,
					"mode" : 1,
					"numinlets" : 1,
					"numoutlets" : 1,
					"outlettype" : [ "float" ],
					"parameter_enable" : 0,
					"patching_rect" : [ 255.5, 82.0, 99.0, 99.0 ],
					"size" : 6.283185,
					"thickness" : 100.0,
					"vtracking" : 0
				}

			}
, 			{
				"box" : 				{
					"id" : "obj-6",
					"linecount" : 2,
					"maxclass" : "comment",
					"numinlets" : 1,
					"numoutlets" : 0,
					"patching_rect" : [ 555.5, 49.5, 67.0, 33.0 ],
					"text" : "vertical span",
					"textjustification" : 1
				}

			}
, 			{
				"box" : 				{
					"id" : "obj-7",
					"linecount" : 2,
					"maxclass" : "comment",
					"numinlets" : 1,
					"numoutlets" : 0,
					"patching_rect" : [ 462.666666666666686, 49.5, 67.0, 33.0 ],
					"text" : "horizontal span",
					"textjustification" : 1
				}

			}
, 			{
				"box" : 				{
					"id" : "obj-8",
					"maxclass" : "comment",
					"numinlets" : 1,
					"numoutlets" : 0,
					"patching_rect" : [ 372.333333333333314, 62.5, 62.0, 20.0 ],
					"text" : "radius",
					"textjustification" : 1
				}

			}
, 			{
				"box" : 				{
					"degrees" : 360,
					"floatoutput" : 1,
					"id" : "obj-5",
					"maxclass" : "dial",
					"min" : -180.0,
					"mode" : 1,
					"numinlets" : 1,
					"numoutlets" : 1,
					"outlettype" : [ "float" ],
					"parameter_enable" : 0,
					"patching_rect" : [ 884.25, 80.5, 99.5, 99.5 ],
					"size" : 360.0,
					"thickness" : 100.0,
					"vtracking" : 0
				}

			}
, 			{
				"box" : 				{
					"id" : "obj-4",
					"maxclass" : "message",
					"numinlets" : 2,
					"numoutlets" : 1,
					"outlettype" : [ "" ],
					"patching_rect" : [ 169.5, 260.0, 424.0, 22.0 ],
					"text" : "/spat/serv pol 1 0. 0. 1.397049 0. 0."
				}

			}
, 			{
				"box" : 				{
					"floatoutput" : 1,
					"id" : "obj-3",
					"maxclass" : "slider",
					"min" : -1.7,
					"numinlets" : 1,
					"numoutlets" : 1,
					"outlettype" : [ "" ],
					"parameter_enable" : 0,
					"patching_rect" : [ 388.333333333333314, 410.5, 29.0, 99.0 ],
					"size" : 3.4
				}

			}
, 			{
				"box" : 				{
					"id" : "obj-2",
					"maxclass" : "message",
					"numinlets" : 2,
					"numoutlets" : 1,
					"outlettype" : [ "" ],
					"patching_rect" : [ 798.0, 260.0, 424.0, 22.0 ],
					"text" : "/spat/serv deg 1 -98.08776 99.527495 0.573034 0. 0."
				}

			}
, 			{
				"box" : 				{
					"id" : "obj-83",
					"maxclass" : "comment",
					"numinlets" : 1,
					"numoutlets" : 0,
					"patching_rect" : [ 393.333333333333314, 386.5, 19.0, 20.0 ],
					"text" : "z",
					"textjustification" : 1
				}

			}
, 			{
				"box" : 				{
					"id" : "obj-84",
					"maxclass" : "comment",
					"numinlets" : 1,
					"numoutlets" : 0,
					"patching_rect" : [ 177.250000000000057, 420.0, 19.0, 20.0 ],
					"text" : "y",
					"textjustification" : 1
				}

			}
, 			{
				"box" : 				{
					"id" : "obj-85",
					"maxclass" : "comment",
					"numinlets" : 1,
					"numoutlets" : 0,
					"patching_rect" : [ 249.083333333333542, 351.5, 19.0, 20.0 ],
					"text" : "x",
					"textjustification" : 1
				}

			}
, 			{
				"box" : 				{
					"floatoutput" : 1,
					"id" : "obj-89",
					"maxclass" : "slider",
					"numinlets" : 1,
					"numoutlets" : 1,
					"outlettype" : [ "" ],
					"parameter_enable" : 0,
					"patching_rect" : [ 574.000000000000114, 410.5, 29.0, 99.0 ],
					"size" : 1.0
				}

			}
, 			{
				"box" : 				{
					"floatoutput" : 1,
					"id" : "obj-91",
					"maxclass" : "slider",
					"numinlets" : 1,
					"numoutlets" : 1,
					"outlettype" : [ "" ],
					"parameter_enable" : 0,
					"patching_rect" : [ 481.166666666666799, 410.5, 29.0, 99.0 ],
					"size" : 1.0
				}

			}
, 			{
				"box" : 				{
					"fontface" : 1,
					"fontsize" : 16.0,
					"id" : "obj-96",
					"maxclass" : "comment",
					"numinlets" : 1,
					"numoutlets" : 0,
					"patching_rect" : [ 216.500000000000057, 316.0, 177.0, 24.0 ],
					"text" : "Cartesian coordinates"
				}

			}
, 			{
				"box" : 				{
					"id" : "obj-99",
					"maxclass" : "number",
					"maximum" : 128,
					"minimum" : 1,
					"numinlets" : 1,
					"numoutlets" : 2,
					"outlettype" : [ "", "bang" ],
					"parameter_enable" : 0,
					"patching_rect" : [ 17.000000000000114, 440.0, 50.0, 22.0 ]
				}

			}
, 			{
				"box" : 				{
					"id" : "obj-100",
					"maxclass" : "newobj",
					"numinlets" : 7,
					"numoutlets" : 1,
					"outlettype" : [ "" ],
					"patching_rect" : [ 17.000000000000114, 530.0, 576.0, 22.0 ],
					"text" : "pak car 1 0. 0. 0. 0. 0."
				}

			}
, 			{
				"box" : 				{
					"id" : "obj-101",
					"maxclass" : "newobj",
					"numinlets" : 1,
					"numoutlets" : 1,
					"outlettype" : [ "" ],
					"patching_rect" : [ 17.000000000000114, 559.0, 110.0, 22.0 ],
					"text" : "prepend /spat/serv"
				}

			}
, 			{
				"box" : 				{
					"id" : "obj-102",
					"maxclass" : "newobj",
					"numinlets" : 1,
					"numoutlets" : 0,
					"patching_rect" : [ 17.000000000000114, 592.0, 144.0, 22.0 ],
					"text" : "udpsend localhost 18032"
				}

			}
, 			{
				"box" : 				{
					"id" : "obj-58",
					"linecount" : 2,
					"maxclass" : "comment",
					"numinlets" : 1,
					"numoutlets" : 0,
					"patching_rect" : [ 1184.0, 46.5, 67.0, 33.0 ],
					"text" : "vertical span",
					"textjustification" : 1
				}

			}
, 			{
				"box" : 				{
					"id" : "obj-59",
					"linecount" : 2,
					"maxclass" : "comment",
					"numinlets" : 1,
					"numoutlets" : 0,
					"patching_rect" : [ 1091.166666666666742, 46.5, 67.0, 33.0 ],
					"text" : "horizontal span",
					"textjustification" : 1
				}

			}
, 			{
				"box" : 				{
					"id" : "obj-60",
					"maxclass" : "comment",
					"numinlets" : 1,
					"numoutlets" : 0,
					"patching_rect" : [ 1000.833333333333258, 60.5, 62.0, 20.0 ],
					"text" : "radius",
					"textjustification" : 1
				}

			}
, 			{
				"box" : 				{
					"id" : "obj-61",
					"maxclass" : "comment",
					"numinlets" : 1,
					"numoutlets" : 0,
					"patching_rect" : [ 903.0, 60.5, 62.0, 20.0 ],
					"text" : "elevation",
					"textjustification" : 1
				}

			}
, 			{
				"box" : 				{
					"id" : "obj-62",
					"maxclass" : "comment",
					"numinlets" : 1,
					"numoutlets" : 0,
					"patching_rect" : [ 784.75, 60.5, 62.0, 20.0 ],
					"text" : "azimuth",
					"textjustification" : 1
				}

			}
, 			{
				"box" : 				{
					"id" : "obj-63",
					"linecount" : 2,
					"maxclass" : "comment",
					"numinlets" : 1,
					"numoutlets" : 0,
					"patching_rect" : [ 646.0, 73.0, 50.0, 33.0 ],
					"text" : "source\nindex",
					"textjustification" : 1
				}

			}
, 			{
				"box" : 				{
					"floatoutput" : 1,
					"id" : "obj-65",
					"maxclass" : "slider",
					"min" : -3.0,
					"numinlets" : 1,
					"numoutlets" : 1,
					"outlettype" : [ "" ],
					"parameter_enable" : 0,
					"patching_rect" : [ 1017.333333333333258, 80.5, 29.0, 99.0 ],
					"size" : 6.0
				}

			}
, 			{
				"box" : 				{
					"floatoutput" : 1,
					"id" : "obj-66",
					"maxclass" : "slider",
					"numinlets" : 1,
					"numoutlets" : 1,
					"outlettype" : [ "" ],
					"parameter_enable" : 0,
					"patching_rect" : [ 1203.0, 80.5, 29.0, 99.0 ],
					"size" : 1.0
				}

			}
, 			{
				"box" : 				{
					"floatoutput" : 1,
					"id" : "obj-68",
					"maxclass" : "slider",
					"numinlets" : 1,
					"numoutlets" : 1,
					"outlettype" : [ "" ],
					"parameter_enable" : 0,
					"patching_rect" : [ 1110.166666666666742, 80.5, 29.0, 99.0 ],
					"size" : 1.0
				}

			}
, 			{
				"box" : 				{
					"degrees" : 360,
					"floatoutput" : 1,
					"id" : "obj-71",
					"maxclass" : "dial",
					"min" : -180.0,
					"mode" : 1,
					"numinlets" : 1,
					"numoutlets" : 1,
					"outlettype" : [ "float" ],
					"parameter_enable" : 0,
					"patching_rect" : [ 766.0, 80.5, 99.5, 99.5 ],
					"size" : 360.0,
					"thickness" : 100.0,
					"vtracking" : 0
				}

			}
, 			{
				"box" : 				{
					"fontface" : 1,
					"fontsize" : 16.0,
					"id" : "obj-73",
					"maxclass" : "comment",
					"numinlets" : 1,
					"numoutlets" : 0,
					"patching_rect" : [ 822.0, 22.0, 224.0, 24.0 ],
					"text" : "Polar coordinates (degrees)"
				}

			}
, 			{
				"box" : 				{
					"id" : "obj-76",
					"maxclass" : "number",
					"maximum" : 128,
					"minimum" : 1,
					"numinlets" : 1,
					"numoutlets" : 2,
					"outlettype" : [ "", "bang" ],
					"parameter_enable" : 0,
					"patching_rect" : [ 646.0, 108.0, 50.0, 22.0 ]
				}

			}
, 			{
				"box" : 				{
					"id" : "obj-77",
					"maxclass" : "newobj",
					"numinlets" : 7,
					"numoutlets" : 1,
					"outlettype" : [ "" ],
					"patching_rect" : [ 646.0, 198.0, 576.0, 22.0 ],
					"text" : "pak deg 1 0. 0. 0. 0. 0."
				}

			}
, 			{
				"box" : 				{
					"id" : "obj-78",
					"maxclass" : "newobj",
					"numinlets" : 1,
					"numoutlets" : 1,
					"outlettype" : [ "" ],
					"patching_rect" : [ 646.0, 227.0, 110.0, 22.0 ],
					"text" : "prepend /spat/serv"
				}

			}
, 			{
				"box" : 				{
					"id" : "obj-79",
					"maxclass" : "newobj",
					"numinlets" : 1,
					"numoutlets" : 0,
					"patching_rect" : [ 646.0, 260.0, 144.0, 22.0 ],
					"text" : "udpsend localhost 18032"
				}

			}
, 			{
				"box" : 				{
					"id" : "obj-54",
					"maxclass" : "comment",
					"numinlets" : 1,
					"numoutlets" : 0,
					"patching_rect" : [ 274.5, 62.5, 62.0, 20.0 ],
					"text" : "elevation",
					"textjustification" : 1
				}

			}
, 			{
				"box" : 				{
					"id" : "obj-53",
					"maxclass" : "comment",
					"numinlets" : 1,
					"numoutlets" : 0,
					"patching_rect" : [ 156.0, 62.5, 62.0, 20.0 ],
					"text" : "azimuth",
					"textjustification" : 1
				}

			}
, 			{
				"box" : 				{
					"floatoutput" : 1,
					"id" : "obj-47",
					"maxclass" : "slider",
					"min" : -3.0,
					"numinlets" : 1,
					"numoutlets" : 1,
					"outlettype" : [ "" ],
					"parameter_enable" : 0,
					"patching_rect" : [ 388.833333333333314, 81.5, 29.0, 99.0 ],
					"size" : 6.0
				}

			}
, 			{
				"box" : 				{
					"floatoutput" : 1,
					"id" : "obj-46",
					"maxclass" : "slider",
					"numinlets" : 1,
					"numoutlets" : 1,
					"outlettype" : [ "" ],
					"parameter_enable" : 0,
					"patching_rect" : [ 574.5, 81.5, 29.0, 99.0 ],
					"size" : 1.0
				}

			}
, 			{
				"box" : 				{
					"floatoutput" : 1,
					"id" : "obj-44",
					"maxclass" : "slider",
					"numinlets" : 1,
					"numoutlets" : 1,
					"outlettype" : [ "" ],
					"parameter_enable" : 0,
					"patching_rect" : [ 481.666666666666686, 81.5, 29.0, 99.0 ],
					"size" : 1.0
				}

			}
, 			{
				"box" : 				{
					"degrees" : 360,
					"floatoutput" : 1,
					"id" : "obj-39",
					"maxclass" : "dial",
					"min" : -3.141593,
					"mode" : 1,
					"numinlets" : 1,
					"numoutlets" : 1,
					"outlettype" : [ "float" ],
					"parameter_enable" : 0,
					"patching_rect" : [ 137.5, 82.0, 99.0, 99.0 ],
					"size" : 6.283185,
					"thickness" : 100.0,
					"vtracking" : 0
				}

			}
, 			{
				"box" : 				{
					"fontface" : 1,
					"fontsize" : 16.0,
					"id" : "obj-22",
					"maxclass" : "comment",
					"numinlets" : 1,
					"numoutlets" : 0,
					"patching_rect" : [ 197.5, 22.0, 216.0, 24.0 ],
					"text" : "Polar coordinates (radians)"
				}

			}
, 			{
				"box" : 				{
					"id" : "obj-27",
					"maxclass" : "number",
					"maximum" : 128,
					"minimum" : 1,
					"numinlets" : 1,
					"numoutlets" : 2,
					"outlettype" : [ "", "bang" ],
					"parameter_enable" : 0,
					"patching_rect" : [ 17.5, 120.5, 50.0, 22.0 ]
				}

			}
, 			{
				"box" : 				{
					"id" : "obj-28",
					"maxclass" : "newobj",
					"numinlets" : 7,
					"numoutlets" : 1,
					"outlettype" : [ "" ],
					"patching_rect" : [ 17.5, 198.0, 576.0, 22.0 ],
					"text" : "pak pol 1 0. 0. 0. 0. 0."
				}

			}
, 			{
				"box" : 				{
					"id" : "obj-29",
					"maxclass" : "newobj",
					"numinlets" : 1,
					"numoutlets" : 1,
					"outlettype" : [ "" ],
					"patching_rect" : [ 17.5, 227.0, 110.0, 22.0 ],
					"text" : "prepend /spat/serv"
				}

			}
, 			{
				"box" : 				{
					"id" : "obj-30",
					"maxclass" : "newobj",
					"numinlets" : 1,
					"numoutlets" : 0,
					"patching_rect" : [ 17.5, 260.0, 144.0, 22.0 ],
					"text" : "udpsend localhost 18032"
				}

			}
 ],
		"lines" : [ 			{
				"patchline" : 				{
					"destination" : [ "obj-101", 0 ],
					"midpoints" : [ 26.500000000000114, 555.0, 26.500000000000114, 555.0 ],
					"source" : [ "obj-100", 0 ]
				}

			}
, 			{
				"patchline" : 				{
					"destination" : [ "obj-102", 0 ],
					"midpoints" : [ 26.500000000000114, 582.0, 26.500000000000114, 582.0 ],
					"order" : 1,
					"source" : [ "obj-101", 0 ]
				}

			}
, 			{
				"patchline" : 				{
					"destination" : [ "obj-33", 1 ],
					"order" : 0,
					"source" : [ "obj-101", 0 ]
				}

			}
, 			{
				"patchline" : 				{
					"destination" : [ "obj-26", 0 ],
					"midpoints" : [ 212.166666666666799, 489.0, 212.166666666666799, 489.0 ],
					"source" : [ "obj-20", 0 ]
				}

			}
, 			{
				"patchline" : 				{
					"destination" : [ "obj-31", 0 ],
					"midpoints" : [ 305.000000000000114, 489.0, 305.000000000000057, 489.0 ],
					"source" : [ "obj-20", 1 ]
				}

			}
, 			{
				"patchline" : 				{
					"destination" : [ "obj-100", 2 ],
					"midpoints" : [ 212.166666666666799, 525.0, 212.166666666666771, 525.0 ],
					"source" : [ "obj-26", 0 ]
				}

			}
, 			{
				"patchline" : 				{
					"destination" : [ "obj-28", 1 ],
					"midpoints" : [ 27.0, 183.0, 119.833333333333329, 183.0 ],
					"source" : [ "obj-27", 0 ]
				}

			}
, 			{
				"patchline" : 				{
					"destination" : [ "obj-29", 0 ],
					"midpoints" : [ 27.0, 222.0, 27.0, 222.0 ],
					"source" : [ "obj-28", 0 ]
				}

			}
, 			{
				"patchline" : 				{
					"destination" : [ "obj-30", 0 ],
					"midpoints" : [ 27.0, 252.0, 27.0, 252.0 ],
					"order" : 1,
					"source" : [ "obj-29", 0 ]
				}

			}
, 			{
				"patchline" : 				{
					"destination" : [ "obj-4", 1 ],
					"order" : 0,
					"source" : [ "obj-29", 0 ]
				}

			}
, 			{
				"patchline" : 				{
					"destination" : [ "obj-100", 4 ],
					"midpoints" : [ 397.833333333333314, 510.0, 397.833333333333428, 510.0 ],
					"source" : [ "obj-3", 0 ]
				}

			}
, 			{
				"patchline" : 				{
					"destination" : [ "obj-100", 3 ],
					"midpoints" : [ 305.000000000000057, 525.0, 305.000000000000114, 525.0 ],
					"source" : [ "obj-31", 0 ]
				}

			}
, 			{
				"patchline" : 				{
					"destination" : [ "obj-28", 2 ],
					"midpoints" : [ 147.0, 192.0, 212.666666666666657, 192.0 ],
					"source" : [ "obj-39", 0 ]
				}

			}
, 			{
				"patchline" : 				{
					"destination" : [ "obj-28", 5 ],
					"midpoints" : [ 491.166666666666686, 183.0, 491.166666666666686, 183.0 ],
					"source" : [ "obj-44", 0 ]
				}

			}
, 			{
				"patchline" : 				{
					"destination" : [ "obj-28", 6 ],
					"midpoints" : [ 584.0, 183.0, 584.0, 183.0 ],
					"source" : [ "obj-46", 0 ]
				}

			}
, 			{
				"patchline" : 				{
					"destination" : [ "obj-28", 4 ],
					"midpoints" : [ 398.333333333333314, 183.0, 398.333333333333314, 183.0 ],
					"source" : [ "obj-47", 0 ]
				}

			}
, 			{
				"patchline" : 				{
					"destination" : [ "obj-77", 3 ],
					"midpoints" : [ 893.75, 189.0, 934.0, 189.0 ],
					"source" : [ "obj-5", 0 ]
				}

			}
, 			{
				"patchline" : 				{
					"destination" : [ "obj-77", 4 ],
					"midpoints" : [ 1026.833333333333258, 180.0, 1026.833333333333258, 180.0 ],
					"source" : [ "obj-65", 0 ]
				}

			}
, 			{
				"patchline" : 				{
					"destination" : [ "obj-77", 6 ],
					"midpoints" : [ 1212.5, 180.0, 1212.5, 180.0 ],
					"source" : [ "obj-66", 0 ]
				}

			}
, 			{
				"patchline" : 				{
					"destination" : [ "obj-77", 5 ],
					"midpoints" : [ 1119.666666666666742, 180.0, 1119.666666666666742, 180.0 ],
					"source" : [ "obj-68", 0 ]
				}

			}
, 			{
				"patchline" : 				{
					"destination" : [ "obj-77", 2 ],
					"midpoints" : [ 775.5, 189.0, 841.166666666666629, 189.0 ],
					"source" : [ "obj-71", 0 ]
				}

			}
, 			{
				"patchline" : 				{
					"destination" : [ "obj-77", 1 ],
					"midpoints" : [ 655.5, 183.0, 748.333333333333371, 183.0 ],
					"source" : [ "obj-76", 0 ]
				}

			}
, 			{
				"patchline" : 				{
					"destination" : [ "obj-78", 0 ],
					"midpoints" : [ 655.5, 222.0, 655.5, 222.0 ],
					"source" : [ "obj-77", 0 ]
				}

			}
, 			{
				"patchline" : 				{
					"destination" : [ "obj-2", 1 ],
					"order" : 0,
					"source" : [ "obj-78", 0 ]
				}

			}
, 			{
				"patchline" : 				{
					"destination" : [ "obj-79", 0 ],
					"midpoints" : [ 655.5, 252.0, 655.5, 252.0 ],
					"order" : 1,
					"source" : [ "obj-78", 0 ]
				}

			}
, 			{
				"patchline" : 				{
					"destination" : [ "obj-100", 6 ],
					"midpoints" : [ 583.500000000000114, 510.0, 583.500000000000114, 510.0 ],
					"source" : [ "obj-89", 0 ]
				}

			}
, 			{
				"patchline" : 				{
					"destination" : [ "obj-28", 3 ],
					"midpoints" : [ 265.0, 192.0, 305.5, 192.0 ],
					"source" : [ "obj-9", 0 ]
				}

			}
, 			{
				"patchline" : 				{
					"destination" : [ "obj-100", 5 ],
					"midpoints" : [ 490.666666666666799, 510.0, 490.666666666666799, 510.0 ],
					"source" : [ "obj-91", 0 ]
				}

			}
, 			{
				"patchline" : 				{
					"destination" : [ "obj-100", 1 ],
					"midpoints" : [ 26.500000000000114, 516.0, 119.333333333333442, 516.0 ],
					"source" : [ "obj-99", 0 ]
				}

			}
 ],
		"dependency_cache" : [  ],
		"autosave" : 0
	}

}
